<svg width="14" height="14" viewBox="0 0 14 14" fill="none" xmlns="http://www.w3.org/2000/svg">
<path d="M11.8123 3.0625L2.18732 3.0625" stroke="black" stroke-width="0.583333" stroke-linecap="round" stroke-linejoin="round"/>
<path d="M5.6875 5.6875V9.1875" stroke="black" stroke-width="0.583333" stroke-linecap="round" stroke-linejoin="round"/>
<path d="M8.3125 5.6875V9.1875" stroke="black" stroke-width="0.583333" stroke-linecap="round" stroke-linejoin="round"/>
<path d="M10.9373 3.0625V11.375C10.9373 11.491 10.8912 11.6023 10.8092 11.6844C10.7271 11.7664 10.6158 11.8125 10.4998 11.8125H3.49982C3.38378 11.8125 3.2725 11.7664 3.19046 11.6844C3.10841 11.6023 3.06232 11.491 3.06232 11.375V3.0625" stroke="black" stroke-width="0.583333" stroke-linecap="round" stroke-linejoin="round"/>
<path d="M9.1875 3.0625V2.1875C9.1875 1.95544 9.09531 1.73288 8.93122 1.56878C8.76712 1.40469 8.54456 1.3125 8.3125 1.3125H5.6875C5.45544 1.3125 5.23288 1.40469 5.06878 1.56878C4.90469 1.73288 4.8125 1.95544 4.8125 2.1875V3.0625" stroke="black" stroke-width="0.583333" stroke-linecap="round" stroke-linejoin="round"/>
</svg>
